<svg xmlns="http://www.w3.org/2000/svg" width="1600" height="1600">
  <path d="M805.66 1579.62c-3.57-.2-15.95-.83-27.5-1.41-129.22-6.56-260.6-31.67-373.84-71.45-19.98-7.02-47.86-17.67-47.42-18.11.15-.16 2.97.37 6.27 1.15 14.55 3.48 82.15 16.69 104 20.32 172.6 28.67 341.5 34.28 497 16.5 157.76-18.03 291.22-60.05 381-119.95 15.65-10.45 32.38-23.22 43.17-32.97 3.95-3.56 7.5-6.48 7.89-6.48 1.13 0-.44 12.75-2.69 21.87-18 72.8-120.85 133.93-281.04 167-51.04 10.54-105.11 17.57-166.93 21.7-21.69 1.46-122.24 2.77-139.9 1.83zm-185-115c-3.57-.19-17.3-.82-30.5-1.42-99-4.44-193.73-16.93-266-35.06-112.35-28.2-173.1-69.75-173.77-118.89-.2-14.16 5.51-26.16 18.79-39.52 24.26-24.43 64.58-41.15 115.98-48.12 18.19-2.46 60.28-2.46 80.75 0l14.74 1.78 28.26 16.04c15.54 8.82 28.48 16.27 28.75 16.56.28.28-1.3.23-3.5-.12-46.96-7.41-103.44 4.01-127.17 25.73-8.65 7.93-10.65 12-10.15 20.74.33 5.95.87 7.49 4.35 12.54 22.11 32.09 114.56 57.57 254.97 70.28 90.28 8.18 205.06 9.73 298.5 4.03 179.08-10.91 306.98-44.03 350.83-90.85 6.88-7.35 13.65-18.27 16.16-26.07 3.29-10.24 3.18-23.61-.27-34.3-1.38-4.26-2.32-7.75-2.1-7.75.23 0 4.57 2.08 9.65 4.61 26.44 13.2 42.87 29.16 47.19 45.85 4.02 15.53-.32 35.13-11.36 51.4-25.61 37.71-92.23 70.82-189.37 94.1-77.44 18.56-165.89 30.35-275.15 36.67-24.88 1.44-160.11 2.77-179.58 1.77zm35-183.48c-115.91-3.2-197.53-28.8-208.56-65.46-9.25-30.74 28.14-68.35 78.47-78.94 7.67-1.61 29.16-3.79 29.92-3.02.25.24-.76 2.03-2.24 3.97-11.22 14.7-7.6 26.7 10.67 35.41 43.49 20.76 172.93 19.12 275.74-3.48 24.28-5.34 57-15.12 65.13-19.47 1.64-.88 9.75 3.92 52.86 31.27 44.68 28.34 50.7 32.46 49.21 33.6-.93.71-7.32 4.16-14.2 7.65-79.01 40.15-205.5 62.1-337 58.47zm427-152.04c33-23.9 52.98-40.77 78.06-65.83 31.1-31.09 50.3-56.38 64.98-85.55 12.27-24.4 18.1-45.69 18.22-66.5.08-14.29-1.75-22.27-7.77-33.86-17.99-34.67-62.65-55.85-108.16-51.31-6.5.65-12.95 1.47-14.33 1.82l-2.5.64 2.5-2.01c4.2-3.38 15.98-10.31 26.26-15.45 58.1-29.06 119.18-25.66 158.45 8.82 17.3 15.19 29.95 39.43 34.88 66.85 2.6 14.47 2.4 42.9-.41 58.5-8.98 49.79-34.82 88.94-80.33 121.76-42.14 30.38-103.93 53.86-170.35 64.73l-4 .65zm-424-3.47c-116.55-4.13-211.88-24.72-251.95-54.43-17.94-13.3-22.34-26.79-14.16-43.41 6.4-13 25.5-29.21 47.32-40.17 21.8-10.95 39.58-16.11 65.2-18.93l5.91-.65-6.72 6.62c-7.3 7.19-11.59 14.82-11.57 20.56.1 26.1 60.62 43.86 159.84 46.9 94.12 2.9 194.8-8.2 272.24-30.03l14.6-4.11 46.9 28.74a8490 8490 0 0 1 47.25 29.06c1.07.97-32.98 12.98-58.33 20.56-68.44 20.46-142.8 33.01-224.3 37.86-18.35 1.1-76.34 1.99-92.23 1.43zm-107-167.09c-6.87-.13-23.52-.73-37-1.31-123.77-5.4-206.68-24.41-235.93-54.13-7.18-7.3-10.48-14.52-10.9-23.88-.96-21.02 16.15-39.1 50.05-52.89 38.48-15.65 97.71-26.3 175.78-31.6 22.61-1.53 92.03-3.81 92.8-3.05.22.22-1.33.86-3.45 1.4-49.36 12.72-76.08 21.35-102.55 33.12-23.92 10.63-38.46 23.28-36.36 31.63 3.86 15.4 110.35 24.28 256.5 21.4 107.71-2.13 195.58-7.46 281.56-17.08 36.15-4.05 84.95-11.24 105.5-15.56 2.33-.49 2.26-.3-1 2.6-11.4 10.15-42.31 33.2-79.65 59.37l-18.16 12.73-10.31 2c-124.78 24.19-291.14 37.93-426.88 35.25zM818.87 843c28.74-28.63 45.2-59.32 47.44-88.37 1.17-15.24-2.85-32.76-11.57-50.41-6.17-12.5-14.04-24.91-31.05-48.95-17.5-24.75-27.36-40.14-33.78-52.73-20.18-39.56-23.77-74.13-12.31-118.58 14.12-54.77 51.4-100.5 111.68-137 52.08-31.54 123.14-55.4 202.88-68.12 17.72-2.83 43.99-5.96 45.57-5.43.56.19-5.41 4.35-13.28 9.24-93.4 58.18-174.97 122.29-209.4 164.57-22.55 27.7-28.5 45.86-23.84 72.61 3.38 19.42 10.35 35.26 33.15 75.39 17.64 31.06 21.46 38.53 27.63 54 11.7 29.34 13.8 57.5 6.19 82.94-10.78 36.01-36.47 67.56-73.87 90.73-17.36 10.75-42.72 21.93-62.76 27.66-15.27 4.36-15.1 4.84-2.68-7.55zm-64.2-25.49c-90.04-64.38-157.49-130.64-197.25-193.76-14.87-23.6-27.75-53.65-32.85-76.66-2.97-13.4-3.72-39.97-1.48-52.83 6.68-38.44 33.48-79.17 81.47-123.83 21.66-20.15 40.17-35.7 93.1-78.2 27.23-21.86 57.82-46.9 68-55.63 72.2-62.02 107.04-108.74 118.18-158.5 1.95-8.7 2.32-13.21 2.32-27.88 0-19.5-1.21-27.26-6.96-44.5-1.83-5.5-3.24-10.1-3.13-10.22.48-.53 13.56 21.3 18.9 31.55 26.05 49.98 33.46 95.4 23.6 144.67-4.7 23.48-18.14 56.01-33.55 81.23-23.83 39.01-50.01 69.52-123.37 143.72-26.12 26.43-51.89 52.92-57.24 58.87-41.91 46.56-61.79 84.17-61.74 116.84.03 14.76 2.75 24.38 15.07 53.15 32 74.78 64.01 135.43 102.35 193.95 1 1.5 1.64 2.73 1.44 2.71-.2-.02-3.3-2.12-6.87-4.68z" fill="#7e44fe"/>
</svg>
