<svg xmlns="http://www.w3.org/2000/svg" width="399.589" height="411.429" viewBox="0 0 105.725 108.857"><path d="M56.094 104.889c.365-3.658.29-4.057-.947-5.089-.739-.616-1.211-1.252-1.05-1.414.162-.161 1.86-.389 3.772-.505 3.902-.238 4.788.543 2.423 2.137-.989.666-1.493 1.56-1.498 2.654-.015 3.953-.706 6.185-1.915 6.185-1.102 0-1.154-.263-.785-3.968zm6.484-.719c.718-6.479.82-6.716 3.174-7.389 4.379-1.25 5.986-.112 2.162 1.532-2.4 1.031-2.696 2.077-.588 2.077 2.083 0 1.852 1.56-.347 2.348-2.094.75-2.025 2.188.104 2.188.78 0 1.521.272 1.647.605.334.888-2.28 2.097-4.559 2.108l-1.978.008.385-3.478zm-43.094-1.686c-2.304-1.855-4.189-3.763-4.189-4.242 0-.478.954-3.88 2.12-7.562l2.121-6.693-6.237-6.255C5.565 69.976 4.14 67.26 4.131 60.257c-.006-4.278-.212-5.147-2.064-8.673C.146 47.924.01 47.298 0 42.127c-.008-4.863.19-5.942 1.617-8.837.894-1.814 2.751-4.421 4.127-5.795 1.554-1.552 2.872-3.622 3.482-5.47 1.362-4.125 2.514-5.918 6.576-10.24 5.252-5.588 11.193-8.159 18.84-8.153 2.455.002 5.484.295 6.73.65 1.966.562 2.433.49 3.528-.54C47.95.873 50.807 0 57.17 0c6.735 0 8.908.767 12.801 4.522 1.758 1.695 2.606 2.032 5.81 2.31 7.171.621 14.424 6.043 16.575 12.39.449 1.324 1.553 2.415 3.713 3.669 3.784 2.196 6.198 4.958 8.267 9.457 1.442 3.137 1.555 3.887 1.252 8.378-.412 6.13-.413 7.375-.003 13.405.515 7.568-1.77 12.118-9.038 17.99-6.658 5.38-7.214 5.596-14.23 5.554-3.395-.02-6.897-.256-7.782-.523-1.336-.403-1.966-.164-3.697 1.4-2.278 2.056-5.608 3.696-7.511 3.696-.665 0-2.025.303-3.023.674-1.435.534-2.547.463-5.333-.34-6.095-1.758-6.465-1.765-9.194-.173-1.406.82-3.787 1.828-5.292 2.239-2.275.622-3.225 1.376-5.643 4.48-3.118 4.004-9.552 13.997-9.552 14.838 0 .28-.364.82-.808 1.2-.636.543-1.7-.028-4.998-2.682zm12.601-21.736c2.184-2.78 2.65-3.07 5.509-3.432 1.717-.218 3.527-.814 4.023-1.323.809-.832.723-1.08-.839-2.432a188.79 188.79 0 0 1-4.057-3.662c-3.73-3.47-6.919-4.835-9.636-4.126-2.846.743-3.277.456-4.112-2.74-.817-3.128-.607-3.546 2.191-4.345 5.245-1.499 9.924.184 16.403 5.9 11.082 9.775 11.537 10.089 15.47 10.682 3.221.485 7.194-.82 9.545-3.138 1.59-1.566 1.626-1.751 1.626-8.536V56.66l-2.352-2.3c-1.293-1.266-2.352-2.454-2.352-2.64 0-.187.665-1.422 1.477-2.746 1.966-3.203 3.245-3.09 6.733.594l2.842 3.002 5.764-3.881c4.164-2.805 5.964-3.71 6.487-3.263.656.56 3.153 5.048 3.153 5.667 0 .14-2.579 2.005-5.732 4.143-6.383 4.33-8.378 6.983-8.378 11.145 0 2.915.761 3.653 4.278 4.149 4.28.604 6.47-.162 11.533-4.03 5.026-3.842 5.563-4.536 6.812-8.803.714-2.442.673-3.101-.408-6.585-.742-2.39-1.022-4.289-.732-4.964.258-.601.796-2.31 1.194-3.799.636-2.373.583-3.097-.434-5.891-1.654-4.548-3.801-6.581-9.115-8.632-1.558-.6-1.975-1.193-2.536-3.598-.824-3.531-3.44-6.911-6.657-8.6-2.027-1.063-3.103-1.216-6.627-.942l-4.208.328-1.756-2.562c-1.81-2.642-4.958-4.721-8.285-5.473-2.276-.514-7.756.796-8.189 1.958-.366.98 2.412 4.104 4.847 5.452.983.544 3.19.99 4.983 1.005l3.219.027.479 2.933c.451 2.763-.19 5.017-1.251 4.394-.206-.121-.842-.045-1.413.169-.867.325-1.072 1.293-1.236 5.845-.197 5.451-.957 8.132-2.303 8.125-.392-.002-1.706-.287-2.919-.633-1.993-.57-2.204-.826-2.204-2.679 0-1.127.278-2.801.618-3.72 1.219-3.298-.369-6.566-5.893-12.132-2.858-2.88-5.832-5.307-6.978-5.696-1.147-.39-4.155-.565-7.071-.412-3.958.208-5.726.61-8.038 1.83-5.016 2.65-9.619 8.706-10.567 13.904-.293 1.61-1.146 2.841-3.198 4.622-3.162 2.742-4.824 5.837-5.062 9.428-.164 2.47.8 6.377 1.575 6.377.916 0 5.467-5.921 6.765-8.8.758-1.681 1.58-4.947 1.829-7.258l.45-4.201 2.543-.188c3.39-.251 4.457.695 3.927 3.486a64.475 64.475 0 0 0-.584 3.656c-.097.832-.365 2.524-.594 3.76l-.418 2.25 6.963-.133 6.962-.131.383 2.721c.572 4.062.067 4.344-8.71 4.868-4.142.247-8.325.766-9.295 1.153-2.098.837-5.935 4.51-7.104 6.8-2.16 4.233.216 11.388 4.672 14.075 1.47.886 2.829 2.12 3.02 2.741.528 1.708 4.27 4.835 5.787 4.835.735 0 1.832.372 2.437.827 1.07.805 1.065.931-.182 4.73-1.74 5.3-1.586 6.068.65 3.224l4.276-5.443zm38.877 23.042c-.503-1.347.764-2.115 2.9-1.759 1.578.264 1.988.129 1.988-.654 0-.626-.493-.987-1.352-.987-3.112 0-3.631-2.769-.954-5.086 2.036-1.763 5.082-2.105 5.631-.633.499 1.337-.141 1.75-2.463 1.59-1.497-.104-2.037.104-2.037.784 0 .564.53.926 1.352.926 3.112 0 3.632 2.77.954 5.087-1.993 1.725-5.49 2.15-6.019.732zm-36.031-2.435c-.56-1.502 1.727-9.734 2.705-9.734.485 0 .966.613 1.07 1.361.245 1.775.48 1.725 2.542-.547 1.268-1.396 1.907-1.728 2.384-1.237.477.49.21 1.267-.998 2.895-1.49 2.009-1.584 2.413-.972 4.153.976 2.777.851 3.354-.724 3.354-.907 0-1.51-.427-1.709-1.21-.418-1.644-1.267-1.52-2.074.303-.741 1.673-1.737 1.97-2.224.662zm47.742-2.628c.183-1.58.443-3.238.579-3.684.135-.447-.284-.955-.932-1.129-2.204-.593-1.236-1.94 2.114-2.94 3.794-1.136 5.486-.448 3.008 1.222-1.163.784-1.554 1.695-1.88 4.384-.535 4.406-.795 5.02-2.12 5.02-.97 0-1.062-.346-.77-2.873zm-37.973.908c.019-1.641 1.83-8.587 2.433-9.335 1.046-1.297 1.673-.915 1.673 1.019 0 2.913 3.062 1.818 3.84-1.373.467-1.912 1.881-3.284 2.579-2.502.463.519-1.126 8.452-1.976 9.867-.75 1.247-2.091.701-2.091-.851 0-2.8-2.342-1.754-3.725 1.663-.862 2.129-2.752 3.174-2.733 1.512zm45.263-.452c-1.71-1.758-.761-2.97 1.495-1.913.842.394 1.775.561 2.074.371 1.037-.66.535-1.55-1.232-2.184-2.59-.928-3.176-2.44-1.696-4.376 1.865-2.44 6.411-1.97 6.411.661 0 .962-1.871 1.038-2.77.114-.681-.7-1.933-.26-1.933.68 0 .297.916.988 2.036 1.534 2.525 1.233 3.192 3.026 1.698 4.563-1.81 1.86-4.567 2.11-6.083.55zM55.86 95.54c0-1.459 4.803-10.28 5.937-10.904 1.758-.968 2.152-.258 2.621 4.719.393 4.167.353 4.384-.804 4.384-.67 0-1.38-.272-1.58-.605-.596-.99-1.378-.705-3.327 1.21-1.906 1.874-2.847 2.269-2.847 1.196zm10.914-2.344c-.461-.767 1.48-9.35 2.227-9.85 1.658-1.107 2 1.55.792 6.16-1.029 3.928-2.094 5.23-3.019 3.69z" fill="#ffffff"/></svg>