<?xml version="1.0" encoding="UTF-8" standalone="no"?>
<!-- Created with Inkscape (http://www.inkscape.org/) -->

<svg
   xmlns:dc="http://purl.org/dc/elements/1.1/"
   xmlns:cc="http://creativecommons.org/ns#"
   xmlns:rdf="http://www.w3.org/1999/02/22-rdf-syntax-ns#"
   xmlns:svg="http://www.w3.org/2000/svg"
   xmlns="http://www.w3.org/2000/svg"
   xmlns:sodipodi="http://sodipodi.sourceforge.net/DTD/sodipodi-0.dtd"
   xmlns:inkscape="http://www.inkscape.org/namespaces/inkscape"
   version="1.1"
   id="svg2"
   width="113.99999"
   height="106.98468"
   viewBox="0 0 113.99999 106.98468"
   sodipodi:docname="logo_for_description.svg"
   inkscape:version="0.92.3 (2405546, 2018-03-11)">
  <metadata
     id="metadata8">
    <rdf:RDF>
      <cc:Work
         rdf:about="">
        <dc:format>image/svg+xml</dc:format>
        <dc:type
           rdf:resource="http://purl.org/dc/dcmitype/StillImage" />
        <dc:title></dc:title>
      </cc:Work>
    </rdf:RDF>
  </metadata>
  <defs
     id="defs6" />
  <sodipodi:namedview
     pagecolor="#ffffff"
     bordercolor="#666666"
     borderopacity="1"
     objecttolerance="10"
     gridtolerance="10"
     guidetolerance="10"
     inkscape:pageopacity="0"
     inkscape:pageshadow="2"
     inkscape:window-width="1366"
     inkscape:window-height="746"
     id="namedview4"
     showgrid="false"
     fit-margin-top="0"
     fit-margin-left="0"
     fit-margin-right="0"
     fit-margin-bottom="0"
     inkscape:zoom="2.1651376"
     inkscape:cx="56.076272"
     inkscape:cy="54.271649"
     inkscape:window-x="-8"
     inkscape:window-y="-8"
     inkscape:window-maximized="1"
     inkscape:current-layer="svg2" />
  <path
     style="fill:#4600fe"
     d="m 22.15552,105.31048 c -6.945762,-5.399232 -6.595181,-4.58213 -5.233981,-12.198931 0.681961,-3.81602 1.720707,-7.09848 2.308324,-7.29435 0.587618,-0.19587 -0.830463,-2.13376 -3.15129,-4.30642 -7.830314,-7.33041 -10.122389,-9.94141 -10.710044,-12.20029 -0.321939,-1.2375 -0.986561,-2.25 -1.476937,-2.25 -0.490375,0 -0.894364,-2.3625 -0.897752,-5.25 -0.0034,-2.8875 -0.678389,-6.53894 -1.5,-8.11431 C 0.53485801,51.857419 0,47.990679 0,42.896519 c 0,-8.76904 1.395497,-12.61505 5.975648,-16.469 1.521586,-1.28033 3.047828,-3.73441 3.3916498,-5.45352 C 10.158356,17.018708 20.884362,6.4644328 25.040688,5.5515498 26.66831,5.1940648 28,4.4873308 28,3.9810318 c 0,-0.5063 4.638992,-0.920545 10.30887,-0.920545 7.516113,0 10.834743,-0.397746 12.250003,-1.468197 2.9364,-2.22098304 18.64333,-2.08375304 22.22631,0.19419 1.49315,0.949296 3.07468,2.299296 3.51451,3 0.43983,0.700704 2.4928,1.274007 4.56217,1.274007 6.93593,0 17.75023,7.0517332 19.560297,12.7547842 0.39193,1.234868 1.15127,2.245218 1.68742,2.245218 1.02035,0 1.51516,0.36357 6.36944,4.68004 5.08542,4.522 5.52097,6.30732 5.52097,22.63051 0,14.66624 -0.0727,15.18679 -2.636,18.8857 -1.4498,2.09206 -2.93328,3.80375 -3.29661,3.80375 -0.64237,0 -2.99177,1.69587 -7.24384,5.22881 -2.830147,2.35151 -7.679517,3.12178 -15.935097,2.53109 -3.97843,-0.28465 -7.18919,-0.0823 -7.53349,0.47478 -0.97317,1.57462 -10.64053,5.74452 -13.35495,5.76049 -1.375,0.008 -4.62236,-0.74596 -7.21635,-1.67567 -4.29571,-1.53963 -4.87543,-1.54999 -6.5,-0.11624 -0.98101,0.86578 -3.26633,1.88942 -5.07849,2.27475 -1.812162,0.38533 -4.295718,1.67291 -5.519015,2.86129 C 36.559496,91.437209 32,97.721649 32,98.993758 c 0,0.5867 -0.476558,1.066722 -1.059017,1.066722 -0.582459,0 -0.780902,0.45 -0.440983,1 0.339919,0.55 0.15005,1 -0.421931,1 -0.571981,0 -1.322322,1.125 -1.667425,2.5 -0.73859,2.94278 -3.074029,3.2228 -6.255124,0.75 z M 33,80.861709 c 0,-1.68715 3.242963,-3.73277 6,-3.78473 4.568422,-0.0861 5.178733,-1.39499 1.890735,-4.05495 -1.673502,-1.35385 -4.021031,-3.29189 -5.216733,-4.30675 -1.678189,-1.42438 -3.151667,-1.71268 -6.460793,-1.26409 -3.512254,0.47613 -4.383672,0.26748 -4.822998,-1.15479 -0.294914,-0.95475 -0.953358,-2.51731 -1.463209,-3.47234 -1.426399,-2.67189 -1.115159,-3.76357 1.072998,-3.76357 1.1,0 2,-0.45 2,-1 0,-1.76571 7.209352,-1.06831 12.180245,1.17825 2.650865,1.19805 4.819755,2.48685 4.819755,2.864 0,0.37716 1.897363,1.98445 4.216353,3.57175 2.319,1.5873 5.019,3.6735 6,4.636 0.98101,0.9625 2.48521,1.75 3.34266,1.75 0.85746,0 1.28091,0.45 0.94099,1 -1.27552,2.06382 10.12434,1.51852 12.22776,-0.58491 0.7783,-0.7783 1.83295,-1.41509 2.34367,-1.41509 0.51071,0 0.92857,-3.04999 0.92857,-6.77776 0,-5.55312 -0.36344,-7.08895 -2.01143,-8.5 -1.10629,-0.94723 -2.45629,-1.72224 -3,-1.72224 -0.54372,0 -0.98857,-0.9 -0.98857,-2 0,-1.1 0.41967,-2 0.93261,-2 0.51294,0 1.21826,-0.9 1.56739,-2 0.92543,-2.91578 4.7474,-2.50545 8.39424,0.90121 1.70817,1.59566 3.10576,2.49566 3.10576,2 0,-0.49567 0.58757,-0.90121 1.30572,-0.90121 0.71814,0 2.83057,-1.125 4.69428,-2.5 4.29618,-3.16963 7.32378,-3.18098 9.38499,-0.0352 2.03535,3.10634 2.07204,5.53518 0.0836,5.53518 -0.84226,0 -1.79041,0.675 -2.10699,1.5 -0.31658,0.825 -1.13361,1.5 -1.81561,1.5 -0.682,0 -2.27771,0.9 -3.54602,2 -1.26831,1.1 -2.68716,2 -3.15301,2 -0.46584,0 -0.84699,0.675 -0.84699,1.5 0,0.825 -0.47851,1.5 -1.06336,1.5 -0.59729,0 -0.92601,1.42444 -0.75,3.25 0.30047,3.11624 0.50886,3.26254 5.06336,3.55479 2.85713,0.18333 4.75,-0.11554 4.75,-0.75 0,-0.58013 0.45965,-1.05479 1.02144,-1.05479 2.05233,0 8.723577,-5.14496 9.835437,-7.58522 1.53505,-3.36908 1.43138,-7.33862 -0.27718,-10.61359 -1.21161,-2.32241 -1.21075,-2.8625 0.006,-3.87245 1.82215,-1.51225 1.81637,-7.25023 -0.0109,-10.78371 -1.48055,-2.86344 -5.283937,-5.14503 -8.576537,-5.14503 -1.38842,0 -2.08634,-0.95262 -2.56424,-3.5 -0.36113,-1.925 -1.05652,-3.5 -1.54531,-3.5 -0.48879,0 -0.88871,-0.57499 -0.88871,-1.27776 0,-0.70277 -1.0125,-2.165266 -2.25,-3.249998 -1.75796,-1.540947 -3.61676,-1.951954 -8.5,-1.879471 -3.4375,0.05102 -6.25055,-0.173976 -6.25122,-0.5 -6.7e-4,-0.326023 -1.13831,-1.91497 -2.52808,-3.530991 -2.15409,-2.504764 -3.40786,-3.001948 -8.49878,-3.370191 -4.8526,-0.351006 -5.97192,-0.148649 -5.97192,1.079641 0,1.968564 6.81713,4.677547 10.16195,4.038144 3.06531,-0.58597 3.54656,0.01552 4.42932,5.536006 0.6351,3.97169 0.55066,4.15462 -1.91777,4.15462 -2.49193,0 -2.59245,0.23577 -2.87781,6.75 l -0.29569,6.75 -4.75,0.30479 c -5.28761,0.33929 -5.09501,0.65383 -4.7907,-7.82384 0.21307,-5.93563 0.0949,-6.13083 -8.31075,-13.730949 -3.178,-2.873434 -4.263844,-3.250993 -9.371513,-3.258569 -7.315563,-0.01085 -13.947504,2.997894 -17.398447,7.893238 -4.309895,6.11382 -4.235747,6.66434 0.842743,6.25714 l 4.46722,-0.35819 -0.344275,6.11001 -0.344276,6.11001 7.25,-0.002 c 5.128446,-10e-4 7.253221,0.36397 7.261006,1.24818 0.0061,0.6875 0.280006,2.87634 0.608785,4.86408 l 0.59778,3.61408 -10.394577,0.4623 c -10.544975,0.46896 -11.273058,0.71842 -16.434585,5.63095 -2.526935,2.40503 -1.106847,13.17857 1.7371,13.17857 0.646256,0 3.052268,1.98738 5.346693,4.4164 2.706418,2.86518 5.200134,4.53357 7.09974,4.75 2.51018,0.28599 2.900745,0.72932 2.736674,3.10639 -0.105261,1.52504 0.232239,2.51098 0.75,2.19098 0.517761,-0.31999 0.941384,-1.06814 0.941384,-1.66254 z M 13.107811,42.257449 c 0.76395,-1.48333 1.743162,-2.95837 2.176027,-3.27788 0.432864,-0.3195 1.063374,-2.28385 1.401133,-4.36521 0.58317,-3.59366 0.509322,-3.72822 -1.465889,-2.67112 C 11.865876,33.737819 9,38.571929 9,42.433469 c 0,4.18809 1.902171,4.10658 4.107811,-0.17602 z"
     id="path817"
     inkscape:connector-curvature="0" />
</svg>
